<svg xmlns="http://www.w3.org/2000/svg" viewBox="0 0 1000 1000" shape-rendering="crispEdges">
<rect width="1000" height="1000" fill="#ffffff"/>
<rect x="0.000" y="0.000" width="27.027" height="27.027" fill="#000000"/>
<rect x="27.027" y="0.000" width="27.027" height="27.027" fill="#000000"/>
<rect x="54.054" y="0.000" width="27.027" height="27.027" fill="#000000"/>
<rect x="81.081" y="0.000" width="27.027" height="27.027" fill="#000000"/>
<rect x="108.108" y="0.000" width="27.027" height="27.027" fill="#000000"/>
<rect x="135.135" y="0.000" width="27.027" height="27.027" fill="#000000"/>
<rect x="162.162" y="0.000" width="27.027" height="27.027" fill="#000000"/>
<rect x="216.216" y="0.000" width="27.027" height="27.027" fill="#000000"/>
<rect x="270.270" y="0.000" width="27.027" height="27.027" fill="#000000"/>
<rect x="297.297" y="0.000" width="27.027" height="27.027" fill="#000000"/>
<rect x="459.459" y="0.000" width="27.027" height="27.027" fill="#000000"/>
<rect x="486.486" y="0.000" width="27.027" height="27.027" fill="#000000"/>
<rect x="594.595" y="0.000" width="27.027" height="27.027" fill="#000000"/>
<rect x="648.649" y="0.000" width="27.027" height="27.027" fill="#000000"/>
<rect x="756.757" y="0.000" width="27.027" height="27.027" fill="#000000"/>
<rect x="810.811" y="0.000" width="27.027" height="27.027" fill="#000000"/>
<rect x="837.838" y="0.000" width="27.027" height="27.027" fill="#000000"/>
<rect x="864.865" y="0.000" width="27.027" height="27.027" fill="#000000"/>
<rect x="891.892" y="0.000" width="27.027" height="27.027" fill="#000000"/>
<rect x="918.919" y="0.000" width="27.027" height="27.027" fill="#000000"/>
<rect x="945.946" y="0.000" width="27.027" height="27.027" fill="#000000"/>
<rect x="972.973" y="0.000" width="27.027" height="27.027" fill="#000000"/>
<rect x="0.000" y="27.027" width="27.027" height="27.027" fill="#000000"/>
<rect x="162.162" y="27.027" width="27.027" height="27.027" fill="#000000"/>
<rect x="216.216" y="27.027" width="27.027" height="27.027" fill="#000000"/>
<rect x="243.243" y="27.027" width="27.027" height="27.027" fill="#000000"/>
<rect x="432.432" y="27.027" width="27.027" height="27.027" fill="#000000"/>
<rect x="540.541" y="27.027" width="27.027" height="27.027" fill="#000000"/>
<rect x="594.595" y="27.027" width="27.027" height="27.027" fill="#000000"/>
<rect x="621.622" y="27.027" width="27.027" height="27.027" fill="#000000"/>
<rect x="648.649" y="27.027" width="27.027" height="27.027" fill="#000000"/>
<rect x="729.730" y="27.027" width="27.027" height="27.027" fill="#000000"/>
<rect x="756.757" y="27.027" width="27.027" height="27.027" fill="#000000"/>
<rect x="810.811" y="27.027" width="27.027" height="27.027" fill="#000000"/>
<rect x="972.973" y="27.027" width="27.027" height="27.027" fill="#000000"/>
<rect x="0.000" y="54.054" width="27.027" height="27.027" fill="#000000"/>
<rect x="54.054" y="54.054" width="27.027" height="27.027" fill="#000000"/>
<rect x="81.081" y="54.054" width="27.027" height="27.027" fill="#000000"/>
<rect x="108.108" y="54.054" width="27.027" height="27.027" fill="#000000"/>
<rect x="162.162" y="54.054" width="27.027" height="27.027" fill="#000000"/>
<rect x="216.216" y="54.054" width="27.027" height="27.027" fill="#000000"/>
<rect x="270.270" y="54.054" width="27.027" height="27.027" fill="#000000"/>
<rect x="297.297" y="54.054" width="27.027" height="27.027" fill="#000000"/>
<rect x="378.378" y="54.054" width="27.027" height="27.027" fill="#000000"/>
<rect x="405.405" y="54.054" width="27.027" height="27.027" fill="#000000"/>
<rect x="486.486" y="54.054" width="27.027" height="27.027" fill="#000000"/>
<rect x="594.595" y="54.054" width="27.027" height="27.027" fill="#000000"/>
<rect x="621.622" y="54.054" width="27.027" height="27.027" fill="#000000"/>
<rect x="702.703" y="54.054" width="27.027" height="27.027" fill="#000000"/>
<rect x="810.811" y="54.054" width="27.027" height="27.027" fill="#000000"/>
<rect x="864.865" y="54.054" width="27.027" height="27.027" fill="#000000"/>
<rect x="891.892" y="54.054" width="27.027" height="27.027" fill="#000000"/>
<rect x="918.919" y="54.054" width="27.027" height="27.027" fill="#000000"/>
<rect x="972.973" y="54.054" width="27.027" height="27.027" fill="#000000"/>
<rect x="0.000" y="81.081" width="27.027" height="27.027" fill="#000000"/>
<rect x="54.054" y="81.081" width="27.027" height="27.027" fill="#000000"/>
<rect x="81.081" y="81.081" width="27.027" height="27.027" fill="#000000"/>
<rect x="108.108" y="81.081" width="27.027" height="27.027" fill="#000000"/>
<rect x="162.162" y="81.081" width="27.027" height="27.027" fill="#000000"/>
<rect x="243.243" y="81.081" width="27.027" height="27.027" fill="#000000"/>
<rect x="270.270" y="81.081" width="27.027" height="27.027" fill="#000000"/>
<rect x="324.324" y="81.081" width="27.027" height="27.027" fill="#000000"/>
<rect x="351.351" y="81.081" width="27.027" height="27.027" fill="#000000"/>
<rect x="513.514" y="81.081" width="27.027" height="27.027" fill="#000000"/>
<rect x="567.568" y="81.081" width="27.027" height="27.027" fill="#000000"/>
<rect x="594.595" y="81.081" width="27.027" height="27.027" fill="#000000"/>
<rect x="621.622" y="81.081" width="27.027" height="27.027" fill="#000000"/>
<rect x="648.649" y="81.081" width="27.027" height="27.027" fill="#000000"/>
<rect x="675.676" y="81.081" width="27.027" height="27.027" fill="#000000"/>
<rect x="702.703" y="81.081" width="27.027" height="27.027" fill="#000000"/>
<rect x="729.730" y="81.081" width="27.027" height="27.027" fill="#000000"/>
<rect x="810.811" y="81.081" width="27.027" height="27.027" fill="#000000"/>
<rect x="864.865" y="81.081" width="27.027" height="27.027" fill="#000000"/>
<rect x="891.892" y="81.081" width="27.027" height="27.027" fill="#000000"/>
<rect x="918.919" y="81.081" width="27.027" height="27.027" fill="#000000"/>
<rect x="972.973" y="81.081" width="27.027" height="27.027" fill="#000000"/>
<rect x="0.000" y="108.108" width="27.027" height="27.027" fill="#000000"/>
<rect x="54.054" y="108.108" width="27.027" height="27.027" fill="#000000"/>
<rect x="81.081" y="108.108" width="27.027" height="27.027" fill="#000000"/>
<rect x="108.108" y="108.108" width="27.027" height="27.027" fill="#000000"/>
<rect x="162.162" y="108.108" width="27.027" height="27.027" fill="#000000"/>
<rect x="351.351" y="108.108" width="27.027" height="27.027" fill="#000000"/>
<rect x="432.432" y="108.108" width="27.027" height="27.027" fill="#000000"/>
<rect x="459.459" y="108.108" width="27.027" height="27.027" fill="#000000"/>
<rect x="513.514" y="108.108" width="27.027" height="27.027" fill="#000000"/>
<rect x="594.595" y="108.108" width="27.027" height="27.027" fill="#000000"/>
<rect x="621.622" y="108.108" width="27.027" height="27.027" fill="#000000"/>
<rect x="648.649" y="108.108" width="27.027" height="27.027" fill="#000000"/>
<rect x="702.703" y="108.108" width="27.027" height="27.027" fill="#000000"/>
<rect x="810.811" y="108.108" width="27.027" height="27.027" fill="#000000"/>
<rect x="864.865" y="108.108" width="27.027" height="27.027" fill="#000000"/>
<rect x="891.892" y="108.108" width="27.027" height="27.027" fill="#000000"/>
<rect x="918.919" y="108.108" width="27.027" height="27.027" fill="#000000"/>
<rect x="972.973" y="108.108" width="27.027" height="27.027" fill="#000000"/>
<rect x="0.000" y="135.135" width="27.027" height="27.027" fill="#000000"/>
<rect x="162.162" y="135.135" width="27.027" height="27.027" fill="#000000"/>
<rect x="216.216" y="135.135" width="27.027" height="27.027" fill="#000000"/>
<rect x="405.405" y="135.135" width="27.027" height="27.027" fill="#000000"/>
<rect x="432.432" y="135.135" width="27.027" height="27.027" fill="#000000"/>
<rect x="486.486" y="135.135" width="27.027" height="27.027" fill="#000000"/>
<rect x="567.568" y="135.135" width="27.027" height="27.027" fill="#000000"/>
<rect x="594.595" y="135.135" width="27.027" height="27.027" fill="#000000"/>
<rect x="621.622" y="135.135" width="27.027" height="27.027" fill="#000000"/>
<rect x="648.649" y="135.135" width="27.027" height="27.027" fill="#000000"/>
<rect x="729.730" y="135.135" width="27.027" height="27.027" fill="#000000"/>
<rect x="756.757" y="135.135" width="27.027" height="27.027" fill="#000000"/>
<rect x="810.811" y="135.135" width="27.027" height="27.027" fill="#000000"/>
<rect x="972.973" y="135.135" width="27.027" height="27.027" fill="#000000"/>
<rect x="0.000" y="162.162" width="27.027" height="27.027" fill="#000000"/>
<rect x="27.027" y="162.162" width="27.027" height="27.027" fill="#000000"/>
<rect x="54.054" y="162.162" width="27.027" height="27.027" fill="#000000"/>
<rect x="81.081" y="162.162" width="27.027" height="27.027" fill="#000000"/>
<rect x="108.108" y="162.162" width="27.027" height="27.027" fill="#000000"/>
<rect x="135.135" y="162.162" width="27.027" height="27.027" fill="#000000"/>
<rect x="162.162" y="162.162" width="27.027" height="27.027" fill="#000000"/>
<rect x="216.216" y="162.162" width="27.027" height="27.027" fill="#000000"/>
<rect x="270.270" y="162.162" width="27.027" height="27.027" fill="#000000"/>
<rect x="324.324" y="162.162" width="27.027" height="27.027" fill="#000000"/>
<rect x="378.378" y="162.162" width="27.027" height="27.027" fill="#000000"/>
<rect x="432.432" y="162.162" width="27.027" height="27.027" fill="#000000"/>
<rect x="486.486" y="162.162" width="27.027" height="27.027" fill="#000000"/>
<rect x="540.541" y="162.162" width="27.027" height="27.027" fill="#000000"/>
<rect x="594.595" y="162.162" width="27.027" height="27.027" fill="#000000"/>
<rect x="648.649" y="162.162" width="27.027" height="27.027" fill="#000000"/>
<rect x="702.703" y="162.162" width="27.027" height="27.027" fill="#000000"/>
<rect x="756.757" y="162.162" width="27.027" height="27.027" fill="#000000"/>
<rect x="810.811" y="162.162" width="27.027" height="27.027" fill="#000000"/>
<rect x="837.838" y="162.162" width="27.027" height="27.027" fill="#000000"/>
<rect x="864.865" y="162.162" width="27.027" height="27.027" fill="#000000"/>
<rect x="891.892" y="162.162" width="27.027" height="27.027" fill="#000000"/>
<rect x="918.919" y="162.162" width="27.027" height="27.027" fill="#000000"/>
<rect x="945.946" y="162.162" width="27.027" height="27.027" fill="#000000"/>
<rect x="972.973" y="162.162" width="27.027" height="27.027" fill="#000000"/>
<rect x="216.216" y="189.189" width="27.027" height="27.027" fill="#000000"/>
<rect x="243.243" y="189.189" width="27.027" height="27.027" fill="#000000"/>
<rect x="270.270" y="189.189" width="27.027" height="27.027" fill="#000000"/>
<rect x="297.297" y="189.189" width="27.027" height="27.027" fill="#000000"/>
<rect x="351.351" y="189.189" width="27.027" height="27.027" fill="#000000"/>
<rect x="459.459" y="189.189" width="27.027" height="27.027" fill="#000000"/>
<rect x="486.486" y="189.189" width="27.027" height="27.027" fill="#000000"/>
<rect x="567.568" y="189.189" width="27.027" height="27.027" fill="#000000"/>
<rect x="594.595" y="189.189" width="27.027" height="27.027" fill="#000000"/>
<rect x="702.703" y="189.189" width="27.027" height="27.027" fill="#000000"/>
<rect x="756.757" y="189.189" width="27.027" height="27.027" fill="#000000"/>
<rect x="54.054" y="216.216" width="27.027" height="27.027" fill="#000000"/>
<rect x="81.081" y="216.216" width="27.027" height="27.027" fill="#000000"/>
<rect x="108.108" y="216.216" width="27.027" height="27.027" fill="#000000"/>
<rect x="162.162" y="216.216" width="27.027" height="27.027" fill="#000000"/>
<rect x="216.216" y="216.216" width="27.027" height="27.027" fill="#000000"/>
<rect x="243.243" y="216.216" width="27.027" height="27.027" fill="#000000"/>
<rect x="270.270" y="216.216" width="27.027" height="27.027" fill="#000000"/>
<rect x="297.297" y="216.216" width="27.027" height="27.027" fill="#000000"/>
<rect x="405.405" y="216.216" width="27.027" height="27.027" fill="#000000"/>
<rect x="432.432" y="216.216" width="27.027" height="27.027" fill="#000000"/>
<rect x="513.514" y="216.216" width="27.027" height="27.027" fill="#000000"/>
<rect x="567.568" y="216.216" width="27.027" height="27.027" fill="#000000"/>
<rect x="594.595" y="216.216" width="27.027" height="27.027" fill="#000000"/>
<rect x="621.622" y="216.216" width="27.027" height="27.027" fill="#000000"/>
<rect x="783.784" y="216.216" width="27.027" height="27.027" fill="#000000"/>
<rect x="810.811" y="216.216" width="27.027" height="27.027" fill="#000000"/>
<rect x="837.838" y="216.216" width="27.027" height="27.027" fill="#000000"/>
<rect x="918.919" y="216.216" width="27.027" height="27.027" fill="#000000"/>
<rect x="945.946" y="216.216" width="27.027" height="27.027" fill="#000000"/>
<rect x="972.973" y="216.216" width="27.027" height="27.027" fill="#000000"/>
<rect x="0.000" y="243.243" width="27.027" height="27.027" fill="#000000"/>
<rect x="27.027" y="243.243" width="27.027" height="27.027" fill="#000000"/>
<rect x="81.081" y="243.243" width="27.027" height="27.027" fill="#000000"/>
<rect x="135.135" y="243.243" width="27.027" height="27.027" fill="#000000"/>
<rect x="189.189" y="243.243" width="27.027" height="27.027" fill="#000000"/>
<rect x="270.270" y="243.243" width="27.027" height="27.027" fill="#000000"/>
<rect x="324.324" y="243.243" width="27.027" height="27.027" fill="#000000"/>
<rect x="405.405" y="243.243" width="27.027" height="27.027" fill="#000000"/>
<rect x="432.432" y="243.243" width="27.027" height="27.027" fill="#000000"/>
<rect x="675.676" y="243.243" width="27.027" height="27.027" fill="#000000"/>
<rect x="702.703" y="243.243" width="27.027" height="27.027" fill="#000000"/>
<rect x="729.730" y="243.243" width="27.027" height="27.027" fill="#000000"/>
<rect x="756.757" y="243.243" width="27.027" height="27.027" fill="#000000"/>
<rect x="810.811" y="243.243" width="27.027" height="27.027" fill="#000000"/>
<rect x="837.838" y="243.243" width="27.027" height="27.027" fill="#000000"/>
<rect x="918.919" y="243.243" width="27.027" height="27.027" fill="#000000"/>
<rect x="54.054" y="270.270" width="27.027" height="27.027" fill="#000000"/>
<rect x="81.081" y="270.270" width="27.027" height="27.027" fill="#000000"/>
<rect x="108.108" y="270.270" width="27.027" height="27.027" fill="#000000"/>
<rect x="135.135" y="270.270" width="27.027" height="27.027" fill="#000000"/>
<rect x="162.162" y="270.270" width="27.027" height="27.027" fill="#000000"/>
<rect x="189.189" y="270.270" width="27.027" height="27.027" fill="#000000"/>
<rect x="216.216" y="270.270" width="27.027" height="27.027" fill="#000000"/>
<rect x="243.243" y="270.270" width="27.027" height="27.027" fill="#000000"/>
<rect x="297.297" y="270.270" width="27.027" height="27.027" fill="#000000"/>
<rect x="324.324" y="270.270" width="27.027" height="27.027" fill="#000000"/>
<rect x="351.351" y="270.270" width="27.027" height="27.027" fill="#000000"/>
<rect x="405.405" y="270.270" width="27.027" height="27.027" fill="#000000"/>
<rect x="459.459" y="270.270" width="27.027" height="27.027" fill="#000000"/>
<rect x="513.514" y="270.270" width="27.027" height="27.027" fill="#000000"/>
<rect x="594.595" y="270.270" width="27.027" height="27.027" fill="#000000"/>
<rect x="648.649" y="270.270" width="27.027" height="27.027" fill="#000000"/>
<rect x="675.676" y="270.270" width="27.027" height="27.027" fill="#000000"/>
<rect x="702.703" y="270.270" width="27.027" height="27.027" fill="#000000"/>
<rect x="810.811" y="270.270" width="27.027" height="27.027" fill="#000000"/>
<rect x="864.865" y="270.270" width="27.027" height="27.027" fill="#000000"/>
<rect x="945.946" y="270.270" width="27.027" height="27.027" fill="#000000"/>
<rect x="972.973" y="270.270" width="27.027" height="27.027" fill="#000000"/>
<rect x="0.000" y="297.297" width="27.027" height="27.027" fill="#000000"/>
<rect x="54.054" y="297.297" width="27.027" height="27.027" fill="#000000"/>
<rect x="243.243" y="297.297" width="27.027" height="27.027" fill="#000000"/>
<rect x="270.270" y="297.297" width="27.027" height="27.027" fill="#000000"/>
<rect x="297.297" y="297.297" width="27.027" height="27.027" fill="#000000"/>
<rect x="432.432" y="297.297" width="27.027" height="27.027" fill="#000000"/>
<rect x="513.514" y="297.297" width="27.027" height="27.027" fill="#000000"/>
<rect x="594.595" y="297.297" width="27.027" height="27.027" fill="#000000"/>
<rect x="702.703" y="297.297" width="27.027" height="27.027" fill="#000000"/>
<rect x="756.757" y="297.297" width="27.027" height="27.027" fill="#000000"/>
<rect x="810.811" y="297.297" width="27.027" height="27.027" fill="#000000"/>
<rect x="837.838" y="297.297" width="27.027" height="27.027" fill="#000000"/>
<rect x="891.892" y="297.297" width="27.027" height="27.027" fill="#000000"/>
<rect x="945.946" y="297.297" width="27.027" height="27.027" fill="#000000"/>
<rect x="0.000" y="324.324" width="27.027" height="27.027" fill="#000000"/>
<rect x="81.081" y="324.324" width="27.027" height="27.027" fill="#000000"/>
<rect x="108.108" y="324.324" width="27.027" height="27.027" fill="#000000"/>
<rect x="135.135" y="324.324" width="27.027" height="27.027" fill="#000000"/>
<rect x="162.162" y="324.324" width="27.027" height="27.027" fill="#000000"/>
<rect x="189.189" y="324.324" width="27.027" height="27.027" fill="#000000"/>
<rect x="297.297" y="324.324" width="27.027" height="27.027" fill="#000000"/>
<rect x="324.324" y="324.324" width="27.027" height="27.027" fill="#000000"/>
<rect x="675.676" y="324.324" width="27.027" height="27.027" fill="#000000"/>
<rect x="702.703" y="324.324" width="27.027" height="27.027" fill="#000000"/>
<rect x="756.757" y="324.324" width="27.027" height="27.027" fill="#000000"/>
<rect x="783.784" y="324.324" width="27.027" height="27.027" fill="#000000"/>
<rect x="810.811" y="324.324" width="27.027" height="27.027" fill="#000000"/>
<rect x="864.865" y="324.324" width="27.027" height="27.027" fill="#000000"/>
<rect x="918.919" y="324.324" width="27.027" height="27.027" fill="#000000"/>
<rect x="945.946" y="324.324" width="27.027" height="27.027" fill="#000000"/>
<rect x="0.000" y="351.351" width="27.027" height="27.027" fill="#000000"/>
<rect x="81.081" y="351.351" width="27.027" height="27.027" fill="#000000"/>
<rect x="108.108" y="351.351" width="27.027" height="27.027" fill="#000000"/>
<rect x="189.189" y="351.351" width="27.027" height="27.027" fill="#000000"/>
<rect x="216.216" y="351.351" width="27.027" height="27.027" fill="#000000"/>
<rect x="243.243" y="351.351" width="27.027" height="27.027" fill="#000000"/>
<rect x="756.757" y="351.351" width="27.027" height="27.027" fill="#000000"/>
<rect x="783.784" y="351.351" width="27.027" height="27.027" fill="#000000"/>
<rect x="837.838" y="351.351" width="27.027" height="27.027" fill="#000000"/>
<rect x="891.892" y="351.351" width="27.027" height="27.027" fill="#000000"/>
<rect x="918.919" y="351.351" width="27.027" height="27.027" fill="#000000"/>
<rect x="0.000" y="378.378" width="27.027" height="27.027" fill="#000000"/>
<rect x="27.027" y="378.378" width="27.027" height="27.027" fill="#000000"/>
<rect x="54.054" y="378.378" width="27.027" height="27.027" fill="#000000"/>
<rect x="108.108" y="378.378" width="27.027" height="27.027" fill="#000000"/>
<rect x="135.135" y="378.378" width="27.027" height="27.027" fill="#000000"/>
<rect x="162.162" y="378.378" width="27.027" height="27.027" fill="#000000"/>
<rect x="189.189" y="378.378" width="27.027" height="27.027" fill="#000000"/>
<rect x="243.243" y="378.378" width="27.027" height="27.027" fill="#000000"/>
<rect x="702.703" y="378.378" width="27.027" height="27.027" fill="#000000"/>
<rect x="729.730" y="378.378" width="27.027" height="27.027" fill="#000000"/>
<rect x="756.757" y="378.378" width="27.027" height="27.027" fill="#000000"/>
<rect x="783.784" y="378.378" width="27.027" height="27.027" fill="#000000"/>
<rect x="837.838" y="378.378" width="27.027" height="27.027" fill="#000000"/>
<rect x="891.892" y="378.378" width="27.027" height="27.027" fill="#000000"/>
<rect x="972.973" y="378.378" width="27.027" height="27.027" fill="#000000"/>
<rect x="135.135" y="405.405" width="27.027" height="27.027" fill="#000000"/>
<rect x="189.189" y="405.405" width="27.027" height="27.027" fill="#000000"/>
<rect x="270.270" y="405.405" width="27.027" height="27.027" fill="#000000"/>
<rect x="702.703" y="405.405" width="27.027" height="27.027" fill="#000000"/>
<rect x="729.730" y="405.405" width="27.027" height="27.027" fill="#000000"/>
<rect x="756.757" y="405.405" width="27.027" height="27.027" fill="#000000"/>
<rect x="837.838" y="405.405" width="27.027" height="27.027" fill="#000000"/>
<rect x="972.973" y="405.405" width="27.027" height="27.027" fill="#000000"/>
<rect x="0.000" y="432.432" width="27.027" height="27.027" fill="#000000"/>
<rect x="54.054" y="432.432" width="27.027" height="27.027" fill="#000000"/>
<rect x="108.108" y="432.432" width="27.027" height="27.027" fill="#000000"/>
<rect x="162.162" y="432.432" width="27.027" height="27.027" fill="#000000"/>
<rect x="243.243" y="432.432" width="27.027" height="27.027" fill="#000000"/>
<rect x="270.270" y="432.432" width="27.027" height="27.027" fill="#000000"/>
<rect x="297.297" y="432.432" width="27.027" height="27.027" fill="#000000"/>
<rect x="675.676" y="432.432" width="27.027" height="27.027" fill="#000000"/>
<rect x="783.784" y="432.432" width="27.027" height="27.027" fill="#000000"/>
<rect x="810.811" y="432.432" width="27.027" height="27.027" fill="#000000"/>
<rect x="864.865" y="432.432" width="27.027" height="27.027" fill="#000000"/>
<rect x="918.919" y="432.432" width="27.027" height="27.027" fill="#000000"/>
<rect x="972.973" y="432.432" width="27.027" height="27.027" fill="#000000"/>
<rect x="27.027" y="459.459" width="27.027" height="27.027" fill="#000000"/>
<rect x="54.054" y="459.459" width="27.027" height="27.027" fill="#000000"/>
<rect x="81.081" y="459.459" width="27.027" height="27.027" fill="#000000"/>
<rect x="108.108" y="459.459" width="27.027" height="27.027" fill="#000000"/>
<rect x="189.189" y="459.459" width="27.027" height="27.027" fill="#000000"/>
<rect x="270.270" y="459.459" width="27.027" height="27.027" fill="#000000"/>
<rect x="756.757" y="459.459" width="27.027" height="27.027" fill="#000000"/>
<rect x="837.838" y="459.459" width="27.027" height="27.027" fill="#000000"/>
<rect x="918.919" y="459.459" width="27.027" height="27.027" fill="#000000"/>
<rect x="27.027" y="486.486" width="27.027" height="27.027" fill="#000000"/>
<rect x="108.108" y="486.486" width="27.027" height="27.027" fill="#000000"/>
<rect x="162.162" y="486.486" width="27.027" height="27.027" fill="#000000"/>
<rect x="243.243" y="486.486" width="27.027" height="27.027" fill="#000000"/>
<rect x="675.676" y="486.486" width="27.027" height="27.027" fill="#000000"/>
<rect x="729.730" y="486.486" width="27.027" height="27.027" fill="#000000"/>
<rect x="783.784" y="486.486" width="27.027" height="27.027" fill="#000000"/>
<rect x="837.838" y="486.486" width="27.027" height="27.027" fill="#000000"/>
<rect x="891.892" y="486.486" width="27.027" height="27.027" fill="#000000"/>
<rect x="918.919" y="486.486" width="27.027" height="27.027" fill="#000000"/>
<rect x="945.946" y="486.486" width="27.027" height="27.027" fill="#000000"/>
<rect x="972.973" y="486.486" width="27.027" height="27.027" fill="#000000"/>
<rect x="54.054" y="513.514" width="27.027" height="27.027" fill="#000000"/>
<rect x="108.108" y="513.514" width="27.027" height="27.027" fill="#000000"/>
<rect x="135.135" y="513.514" width="27.027" height="27.027" fill="#000000"/>
<rect x="216.216" y="513.514" width="27.027" height="27.027" fill="#000000"/>
<rect x="297.297" y="513.514" width="27.027" height="27.027" fill="#000000"/>
<rect x="756.757" y="513.514" width="27.027" height="27.027" fill="#000000"/>
<rect x="864.865" y="513.514" width="27.027" height="27.027" fill="#000000"/>
<rect x="945.946" y="513.514" width="27.027" height="27.027" fill="#000000"/>
<rect x="0.000" y="540.541" width="27.027" height="27.027" fill="#000000"/>
<rect x="81.081" y="540.541" width="27.027" height="27.027" fill="#000000"/>
<rect x="135.135" y="540.541" width="27.027" height="27.027" fill="#000000"/>
<rect x="162.162" y="540.541" width="27.027" height="27.027" fill="#000000"/>
<rect x="216.216" y="540.541" width="27.027" height="27.027" fill="#000000"/>
<rect x="270.270" y="540.541" width="27.027" height="27.027" fill="#000000"/>
<rect x="675.676" y="540.541" width="27.027" height="27.027" fill="#000000"/>
<rect x="783.784" y="540.541" width="27.027" height="27.027" fill="#000000"/>
<rect x="810.811" y="540.541" width="27.027" height="27.027" fill="#000000"/>
<rect x="837.838" y="540.541" width="27.027" height="27.027" fill="#000000"/>
<rect x="864.865" y="540.541" width="27.027" height="27.027" fill="#000000"/>
<rect x="891.892" y="540.541" width="27.027" height="27.027" fill="#000000"/>
<rect x="918.919" y="540.541" width="27.027" height="27.027" fill="#000000"/>
<rect x="945.946" y="540.541" width="27.027" height="27.027" fill="#000000"/>
<rect x="972.973" y="540.541" width="27.027" height="27.027" fill="#000000"/>
<rect x="54.054" y="567.568" width="27.027" height="27.027" fill="#000000"/>
<rect x="81.081" y="567.568" width="27.027" height="27.027" fill="#000000"/>
<rect x="108.108" y="567.568" width="27.027" height="27.027" fill="#000000"/>
<rect x="189.189" y="567.568" width="27.027" height="27.027" fill="#000000"/>
<rect x="216.216" y="567.568" width="27.027" height="27.027" fill="#000000"/>
<rect x="297.297" y="567.568" width="27.027" height="27.027" fill="#000000"/>
<rect x="675.676" y="567.568" width="27.027" height="27.027" fill="#000000"/>
<rect x="837.838" y="567.568" width="27.027" height="27.027" fill="#000000"/>
<rect x="918.919" y="567.568" width="27.027" height="27.027" fill="#000000"/>
<rect x="54.054" y="594.595" width="27.027" height="27.027" fill="#000000"/>
<rect x="162.162" y="594.595" width="27.027" height="27.027" fill="#000000"/>
<rect x="189.189" y="594.595" width="27.027" height="27.027" fill="#000000"/>
<rect x="216.216" y="594.595" width="27.027" height="27.027" fill="#000000"/>
<rect x="243.243" y="594.595" width="27.027" height="27.027" fill="#000000"/>
<rect x="270.270" y="594.595" width="27.027" height="27.027" fill="#000000"/>
<rect x="675.676" y="594.595" width="27.027" height="27.027" fill="#000000"/>
<rect x="702.703" y="594.595" width="27.027" height="27.027" fill="#000000"/>
<rect x="729.730" y="594.595" width="27.027" height="27.027" fill="#000000"/>
<rect x="783.784" y="594.595" width="27.027" height="27.027" fill="#000000"/>
<rect x="810.811" y="594.595" width="27.027" height="27.027" fill="#000000"/>
<rect x="945.946" y="594.595" width="27.027" height="27.027" fill="#000000"/>
<rect x="972.973" y="594.595" width="27.027" height="27.027" fill="#000000"/>
<rect x="27.027" y="621.622" width="27.027" height="27.027" fill="#000000"/>
<rect x="81.081" y="621.622" width="27.027" height="27.027" fill="#000000"/>
<rect x="135.135" y="621.622" width="27.027" height="27.027" fill="#000000"/>
<rect x="270.270" y="621.622" width="27.027" height="27.027" fill="#000000"/>
<rect x="297.297" y="621.622" width="27.027" height="27.027" fill="#000000"/>
<rect x="675.676" y="621.622" width="27.027" height="27.027" fill="#000000"/>
<rect x="783.784" y="621.622" width="27.027" height="27.027" fill="#000000"/>
<rect x="810.811" y="621.622" width="27.027" height="27.027" fill="#000000"/>
<rect x="837.838" y="621.622" width="27.027" height="27.027" fill="#000000"/>
<rect x="891.892" y="621.622" width="27.027" height="27.027" fill="#000000"/>
<rect x="972.973" y="621.622" width="27.027" height="27.027" fill="#000000"/>
<rect x="108.108" y="648.649" width="27.027" height="27.027" fill="#000000"/>
<rect x="162.162" y="648.649" width="27.027" height="27.027" fill="#000000"/>
<rect x="324.324" y="648.649" width="27.027" height="27.027" fill="#000000"/>
<rect x="648.649" y="648.649" width="27.027" height="27.027" fill="#000000"/>
<rect x="702.703" y="648.649" width="27.027" height="27.027" fill="#000000"/>
<rect x="783.784" y="648.649" width="27.027" height="27.027" fill="#000000"/>
<rect x="810.811" y="648.649" width="27.027" height="27.027" fill="#000000"/>
<rect x="837.838" y="648.649" width="27.027" height="27.027" fill="#000000"/>
<rect x="864.865" y="648.649" width="27.027" height="27.027" fill="#000000"/>
<rect x="891.892" y="648.649" width="27.027" height="27.027" fill="#000000"/>
<rect x="918.919" y="648.649" width="27.027" height="27.027" fill="#000000"/>
<rect x="945.946" y="648.649" width="27.027" height="27.027" fill="#000000"/>
<rect x="972.973" y="648.649" width="27.027" height="27.027" fill="#000000"/>
<rect x="0.000" y="675.676" width="27.027" height="27.027" fill="#000000"/>
<rect x="27.027" y="675.676" width="27.027" height="27.027" fill="#000000"/>
<rect x="54.054" y="675.676" width="27.027" height="27.027" fill="#000000"/>
<rect x="216.216" y="675.676" width="27.027" height="27.027" fill="#000000"/>
<rect x="243.243" y="675.676" width="27.027" height="27.027" fill="#000000"/>
<rect x="297.297" y="675.676" width="27.027" height="27.027" fill="#000000"/>
<rect x="324.324" y="675.676" width="27.027" height="27.027" fill="#000000"/>
<rect x="351.351" y="675.676" width="27.027" height="27.027" fill="#000000"/>
<rect x="405.405" y="675.676" width="27.027" height="27.027" fill="#000000"/>
<rect x="432.432" y="675.676" width="27.027" height="27.027" fill="#000000"/>
<rect x="540.541" y="675.676" width="27.027" height="27.027" fill="#000000"/>
<rect x="567.568" y="675.676" width="27.027" height="27.027" fill="#000000"/>
<rect x="594.595" y="675.676" width="27.027" height="27.027" fill="#000000"/>
<rect x="729.730" y="675.676" width="27.027" height="27.027" fill="#000000"/>
<rect x="783.784" y="675.676" width="27.027" height="27.027" fill="#000000"/>
<rect x="837.838" y="675.676" width="27.027" height="27.027" fill="#000000"/>
<rect x="891.892" y="675.676" width="27.027" height="27.027" fill="#000000"/>
<rect x="918.919" y="675.676" width="27.027" height="27.027" fill="#000000"/>
<rect x="0.000" y="702.703" width="27.027" height="27.027" fill="#000000"/>
<rect x="54.054" y="702.703" width="27.027" height="27.027" fill="#000000"/>
<rect x="108.108" y="702.703" width="27.027" height="27.027" fill="#000000"/>
<rect x="135.135" y="702.703" width="27.027" height="27.027" fill="#000000"/>
<rect x="162.162" y="702.703" width="27.027" height="27.027" fill="#000000"/>
<rect x="189.189" y="702.703" width="27.027" height="27.027" fill="#000000"/>
<rect x="351.351" y="702.703" width="27.027" height="27.027" fill="#000000"/>
<rect x="405.405" y="702.703" width="27.027" height="27.027" fill="#000000"/>
<rect x="459.459" y="702.703" width="27.027" height="27.027" fill="#000000"/>
<rect x="486.486" y="702.703" width="27.027" height="27.027" fill="#000000"/>
<rect x="567.568" y="702.703" width="27.027" height="27.027" fill="#000000"/>
<rect x="621.622" y="702.703" width="27.027" height="27.027" fill="#000000"/>
<rect x="648.649" y="702.703" width="27.027" height="27.027" fill="#000000"/>
<rect x="729.730" y="702.703" width="27.027" height="27.027" fill="#000000"/>
<rect x="756.757" y="702.703" width="27.027" height="27.027" fill="#000000"/>
<rect x="810.811" y="702.703" width="27.027" height="27.027" fill="#000000"/>
<rect x="891.892" y="702.703" width="27.027" height="27.027" fill="#000000"/>
<rect x="945.946" y="702.703" width="27.027" height="27.027" fill="#000000"/>
<rect x="972.973" y="702.703" width="27.027" height="27.027" fill="#000000"/>
<rect x="0.000" y="729.730" width="27.027" height="27.027" fill="#000000"/>
<rect x="135.135" y="729.730" width="27.027" height="27.027" fill="#000000"/>
<rect x="189.189" y="729.730" width="27.027" height="27.027" fill="#000000"/>
<rect x="216.216" y="729.730" width="27.027" height="27.027" fill="#000000"/>
<rect x="243.243" y="729.730" width="27.027" height="27.027" fill="#000000"/>
<rect x="270.270" y="729.730" width="27.027" height="27.027" fill="#000000"/>
<rect x="297.297" y="729.730" width="27.027" height="27.027" fill="#000000"/>
<rect x="324.324" y="729.730" width="27.027" height="27.027" fill="#000000"/>
<rect x="432.432" y="729.730" width="27.027" height="27.027" fill="#000000"/>
<rect x="513.514" y="729.730" width="27.027" height="27.027" fill="#000000"/>
<rect x="540.541" y="729.730" width="27.027" height="27.027" fill="#000000"/>
<rect x="567.568" y="729.730" width="27.027" height="27.027" fill="#000000"/>
<rect x="621.622" y="729.730" width="27.027" height="27.027" fill="#000000"/>
<rect x="702.703" y="729.730" width="27.027" height="27.027" fill="#000000"/>
<rect x="783.784" y="729.730" width="27.027" height="27.027" fill="#000000"/>
<rect x="837.838" y="729.730" width="27.027" height="27.027" fill="#000000"/>
<rect x="945.946" y="729.730" width="27.027" height="27.027" fill="#000000"/>
<rect x="0.000" y="756.757" width="27.027" height="27.027" fill="#000000"/>
<rect x="54.054" y="756.757" width="27.027" height="27.027" fill="#000000"/>
<rect x="135.135" y="756.757" width="27.027" height="27.027" fill="#000000"/>
<rect x="162.162" y="756.757" width="27.027" height="27.027" fill="#000000"/>
<rect x="297.297" y="756.757" width="27.027" height="27.027" fill="#000000"/>
<rect x="351.351" y="756.757" width="27.027" height="27.027" fill="#000000"/>
<rect x="378.378" y="756.757" width="27.027" height="27.027" fill="#000000"/>
<rect x="459.459" y="756.757" width="27.027" height="27.027" fill="#000000"/>
<rect x="621.622" y="756.757" width="27.027" height="27.027" fill="#000000"/>
<rect x="648.649" y="756.757" width="27.027" height="27.027" fill="#000000"/>
<rect x="675.676" y="756.757" width="27.027" height="27.027" fill="#000000"/>
<rect x="702.703" y="756.757" width="27.027" height="27.027" fill="#000000"/>
<rect x="729.730" y="756.757" width="27.027" height="27.027" fill="#000000"/>
<rect x="756.757" y="756.757" width="27.027" height="27.027" fill="#000000"/>
<rect x="783.784" y="756.757" width="27.027" height="27.027" fill="#000000"/>
<rect x="810.811" y="756.757" width="27.027" height="27.027" fill="#000000"/>
<rect x="837.838" y="756.757" width="27.027" height="27.027" fill="#000000"/>
<rect x="864.865" y="756.757" width="27.027" height="27.027" fill="#000000"/>
<rect x="972.973" y="756.757" width="27.027" height="27.027" fill="#000000"/>
<rect x="216.216" y="783.784" width="27.027" height="27.027" fill="#000000"/>
<rect x="270.270" y="783.784" width="27.027" height="27.027" fill="#000000"/>
<rect x="324.324" y="783.784" width="27.027" height="27.027" fill="#000000"/>
<rect x="378.378" y="783.784" width="27.027" height="27.027" fill="#000000"/>
<rect x="405.405" y="783.784" width="27.027" height="27.027" fill="#000000"/>
<rect x="432.432" y="783.784" width="27.027" height="27.027" fill="#000000"/>
<rect x="459.459" y="783.784" width="27.027" height="27.027" fill="#000000"/>
<rect x="486.486" y="783.784" width="27.027" height="27.027" fill="#000000"/>
<rect x="540.541" y="783.784" width="27.027" height="27.027" fill="#000000"/>
<rect x="567.568" y="783.784" width="27.027" height="27.027" fill="#000000"/>
<rect x="621.622" y="783.784" width="27.027" height="27.027" fill="#000000"/>
<rect x="675.676" y="783.784" width="27.027" height="27.027" fill="#000000"/>
<rect x="702.703" y="783.784" width="27.027" height="27.027" fill="#000000"/>
<rect x="729.730" y="783.784" width="27.027" height="27.027" fill="#000000"/>
<rect x="756.757" y="783.784" width="27.027" height="27.027" fill="#000000"/>
<rect x="864.865" y="783.784" width="27.027" height="27.027" fill="#000000"/>
<rect x="945.946" y="783.784" width="27.027" height="27.027" fill="#000000"/>
<rect x="0.000" y="810.811" width="27.027" height="27.027" fill="#000000"/>
<rect x="27.027" y="810.811" width="27.027" height="27.027" fill="#000000"/>
<rect x="54.054" y="810.811" width="27.027" height="27.027" fill="#000000"/>
<rect x="81.081" y="810.811" width="27.027" height="27.027" fill="#000000"/>
<rect x="108.108" y="810.811" width="27.027" height="27.027" fill="#000000"/>
<rect x="135.135" y="810.811" width="27.027" height="27.027" fill="#000000"/>
<rect x="162.162" y="810.811" width="27.027" height="27.027" fill="#000000"/>
<rect x="270.270" y="810.811" width="27.027" height="27.027" fill="#000000"/>
<rect x="324.324" y="810.811" width="27.027" height="27.027" fill="#000000"/>
<rect x="351.351" y="810.811" width="27.027" height="27.027" fill="#000000"/>
<rect x="378.378" y="810.811" width="27.027" height="27.027" fill="#000000"/>
<rect x="405.405" y="810.811" width="27.027" height="27.027" fill="#000000"/>
<rect x="432.432" y="810.811" width="27.027" height="27.027" fill="#000000"/>
<rect x="459.459" y="810.811" width="27.027" height="27.027" fill="#000000"/>
<rect x="567.568" y="810.811" width="27.027" height="27.027" fill="#000000"/>
<rect x="675.676" y="810.811" width="27.027" height="27.027" fill="#000000"/>
<rect x="702.703" y="810.811" width="27.027" height="27.027" fill="#000000"/>
<rect x="756.757" y="810.811" width="27.027" height="27.027" fill="#000000"/>
<rect x="810.811" y="810.811" width="27.027" height="27.027" fill="#000000"/>
<rect x="864.865" y="810.811" width="27.027" height="27.027" fill="#000000"/>
<rect x="891.892" y="810.811" width="27.027" height="27.027" fill="#000000"/>
<rect x="945.946" y="810.811" width="27.027" height="27.027" fill="#000000"/>
<rect x="972.973" y="810.811" width="27.027" height="27.027" fill="#000000"/>
<rect x="0.000" y="837.838" width="27.027" height="27.027" fill="#000000"/>
<rect x="162.162" y="837.838" width="27.027" height="27.027" fill="#000000"/>
<rect x="270.270" y="837.838" width="27.027" height="27.027" fill="#000000"/>
<rect x="324.324" y="837.838" width="27.027" height="27.027" fill="#000000"/>
<rect x="540.541" y="837.838" width="27.027" height="27.027" fill="#000000"/>
<rect x="594.595" y="837.838" width="27.027" height="27.027" fill="#000000"/>
<rect x="648.649" y="837.838" width="27.027" height="27.027" fill="#000000"/>
<rect x="729.730" y="837.838" width="27.027" height="27.027" fill="#000000"/>
<rect x="756.757" y="837.838" width="27.027" height="27.027" fill="#000000"/>
<rect x="864.865" y="837.838" width="27.027" height="27.027" fill="#000000"/>
<rect x="972.973" y="837.838" width="27.027" height="27.027" fill="#000000"/>
<rect x="0.000" y="864.865" width="27.027" height="27.027" fill="#000000"/>
<rect x="54.054" y="864.865" width="27.027" height="27.027" fill="#000000"/>
<rect x="81.081" y="864.865" width="27.027" height="27.027" fill="#000000"/>
<rect x="108.108" y="864.865" width="27.027" height="27.027" fill="#000000"/>
<rect x="162.162" y="864.865" width="27.027" height="27.027" fill="#000000"/>
<rect x="216.216" y="864.865" width="27.027" height="27.027" fill="#000000"/>
<rect x="270.270" y="864.865" width="27.027" height="27.027" fill="#000000"/>
<rect x="297.297" y="864.865" width="27.027" height="27.027" fill="#000000"/>
<rect x="324.324" y="864.865" width="27.027" height="27.027" fill="#000000"/>
<rect x="351.351" y="864.865" width="27.027" height="27.027" fill="#000000"/>
<rect x="405.405" y="864.865" width="27.027" height="27.027" fill="#000000"/>
<rect x="594.595" y="864.865" width="27.027" height="27.027" fill="#000000"/>
<rect x="621.622" y="864.865" width="27.027" height="27.027" fill="#000000"/>
<rect x="675.676" y="864.865" width="27.027" height="27.027" fill="#000000"/>
<rect x="702.703" y="864.865" width="27.027" height="27.027" fill="#000000"/>
<rect x="729.730" y="864.865" width="27.027" height="27.027" fill="#000000"/>
<rect x="756.757" y="864.865" width="27.027" height="27.027" fill="#000000"/>
<rect x="783.784" y="864.865" width="27.027" height="27.027" fill="#000000"/>
<rect x="810.811" y="864.865" width="27.027" height="27.027" fill="#000000"/>
<rect x="837.838" y="864.865" width="27.027" height="27.027" fill="#000000"/>
<rect x="864.865" y="864.865" width="27.027" height="27.027" fill="#000000"/>
<rect x="918.919" y="864.865" width="27.027" height="27.027" fill="#000000"/>
<rect x="972.973" y="864.865" width="27.027" height="27.027" fill="#000000"/>
<rect x="0.000" y="891.892" width="27.027" height="27.027" fill="#000000"/>
<rect x="54.054" y="891.892" width="27.027" height="27.027" fill="#000000"/>
<rect x="81.081" y="891.892" width="27.027" height="27.027" fill="#000000"/>
<rect x="108.108" y="891.892" width="27.027" height="27.027" fill="#000000"/>
<rect x="162.162" y="891.892" width="27.027" height="27.027" fill="#000000"/>
<rect x="216.216" y="891.892" width="27.027" height="27.027" fill="#000000"/>
<rect x="243.243" y="891.892" width="27.027" height="27.027" fill="#000000"/>
<rect x="324.324" y="891.892" width="27.027" height="27.027" fill="#000000"/>
<rect x="378.378" y="891.892" width="27.027" height="27.027" fill="#000000"/>
<rect x="432.432" y="891.892" width="27.027" height="27.027" fill="#000000"/>
<rect x="513.514" y="891.892" width="27.027" height="27.027" fill="#000000"/>
<rect x="567.568" y="891.892" width="27.027" height="27.027" fill="#000000"/>
<rect x="648.649" y="891.892" width="27.027" height="27.027" fill="#000000"/>
<rect x="675.676" y="891.892" width="27.027" height="27.027" fill="#000000"/>
<rect x="810.811" y="891.892" width="27.027" height="27.027" fill="#000000"/>
<rect x="837.838" y="891.892" width="27.027" height="27.027" fill="#000000"/>
<rect x="864.865" y="891.892" width="27.027" height="27.027" fill="#000000"/>
<rect x="891.892" y="891.892" width="27.027" height="27.027" fill="#000000"/>
<rect x="0.000" y="918.919" width="27.027" height="27.027" fill="#000000"/>
<rect x="54.054" y="918.919" width="27.027" height="27.027" fill="#000000"/>
<rect x="81.081" y="918.919" width="27.027" height="27.027" fill="#000000"/>
<rect x="108.108" y="918.919" width="27.027" height="27.027" fill="#000000"/>
<rect x="162.162" y="918.919" width="27.027" height="27.027" fill="#000000"/>
<rect x="216.216" y="918.919" width="27.027" height="27.027" fill="#000000"/>
<rect x="243.243" y="918.919" width="27.027" height="27.027" fill="#000000"/>
<rect x="297.297" y="918.919" width="27.027" height="27.027" fill="#000000"/>
<rect x="351.351" y="918.919" width="27.027" height="27.027" fill="#000000"/>
<rect x="405.405" y="918.919" width="27.027" height="27.027" fill="#000000"/>
<rect x="432.432" y="918.919" width="27.027" height="27.027" fill="#000000"/>
<rect x="459.459" y="918.919" width="27.027" height="27.027" fill="#000000"/>
<rect x="486.486" y="918.919" width="27.027" height="27.027" fill="#000000"/>
<rect x="513.514" y="918.919" width="27.027" height="27.027" fill="#000000"/>
<rect x="567.568" y="918.919" width="27.027" height="27.027" fill="#000000"/>
<rect x="675.676" y="918.919" width="27.027" height="27.027" fill="#000000"/>
<rect x="702.703" y="918.919" width="27.027" height="27.027" fill="#000000"/>
<rect x="729.730" y="918.919" width="27.027" height="27.027" fill="#000000"/>
<rect x="756.757" y="918.919" width="27.027" height="27.027" fill="#000000"/>
<rect x="783.784" y="918.919" width="27.027" height="27.027" fill="#000000"/>
<rect x="837.838" y="918.919" width="27.027" height="27.027" fill="#000000"/>
<rect x="891.892" y="918.919" width="27.027" height="27.027" fill="#000000"/>
<rect x="918.919" y="918.919" width="27.027" height="27.027" fill="#000000"/>
<rect x="972.973" y="918.919" width="27.027" height="27.027" fill="#000000"/>
<rect x="0.000" y="945.946" width="27.027" height="27.027" fill="#000000"/>
<rect x="162.162" y="945.946" width="27.027" height="27.027" fill="#000000"/>
<rect x="270.270" y="945.946" width="27.027" height="27.027" fill="#000000"/>
<rect x="324.324" y="945.946" width="27.027" height="27.027" fill="#000000"/>
<rect x="486.486" y="945.946" width="27.027" height="27.027" fill="#000000"/>
<rect x="594.595" y="945.946" width="27.027" height="27.027" fill="#000000"/>
<rect x="648.649" y="945.946" width="27.027" height="27.027" fill="#000000"/>
<rect x="702.703" y="945.946" width="27.027" height="27.027" fill="#000000"/>
<rect x="729.730" y="945.946" width="27.027" height="27.027" fill="#000000"/>
<rect x="756.757" y="945.946" width="27.027" height="27.027" fill="#000000"/>
<rect x="810.811" y="945.946" width="27.027" height="27.027" fill="#000000"/>
<rect x="837.838" y="945.946" width="27.027" height="27.027" fill="#000000"/>
<rect x="864.865" y="945.946" width="27.027" height="27.027" fill="#000000"/>
<rect x="972.973" y="945.946" width="27.027" height="27.027" fill="#000000"/>
<rect x="0.000" y="972.973" width="27.027" height="27.027" fill="#000000"/>
<rect x="27.027" y="972.973" width="27.027" height="27.027" fill="#000000"/>
<rect x="54.054" y="972.973" width="27.027" height="27.027" fill="#000000"/>
<rect x="81.081" y="972.973" width="27.027" height="27.027" fill="#000000"/>
<rect x="108.108" y="972.973" width="27.027" height="27.027" fill="#000000"/>
<rect x="135.135" y="972.973" width="27.027" height="27.027" fill="#000000"/>
<rect x="162.162" y="972.973" width="27.027" height="27.027" fill="#000000"/>
<rect x="270.270" y="972.973" width="27.027" height="27.027" fill="#000000"/>
<rect x="324.324" y="972.973" width="27.027" height="27.027" fill="#000000"/>
<rect x="351.351" y="972.973" width="27.027" height="27.027" fill="#000000"/>
<rect x="378.378" y="972.973" width="27.027" height="27.027" fill="#000000"/>
<rect x="405.405" y="972.973" width="27.027" height="27.027" fill="#000000"/>
<rect x="432.432" y="972.973" width="27.027" height="27.027" fill="#000000"/>
<rect x="459.459" y="972.973" width="27.027" height="27.027" fill="#000000"/>
<rect x="540.541" y="972.973" width="27.027" height="27.027" fill="#000000"/>
<rect x="567.568" y="972.973" width="27.027" height="27.027" fill="#000000"/>
<rect x="594.595" y="972.973" width="27.027" height="27.027" fill="#000000"/>
<rect x="675.676" y="972.973" width="27.027" height="27.027" fill="#000000"/>
<rect x="783.784" y="972.973" width="27.027" height="27.027" fill="#000000"/>
<rect x="810.811" y="972.973" width="27.027" height="27.027" fill="#000000"/>
<rect x="837.838" y="972.973" width="27.027" height="27.027" fill="#000000"/>
<rect x="864.865" y="972.973" width="27.027" height="27.027" fill="#000000"/>
<rect x="891.892" y="972.973" width="27.027" height="27.027" fill="#000000"/>
<rect x="918.919" y="972.973" width="27.027" height="27.027" fill="#000000"/>
<rect x="945.946" y="972.973" width="27.027" height="27.027" fill="#000000"/>
<rect x="972.973" y="972.973" width="27.027" height="27.027" fill="#000000"/>
<rect x="351.351" y="351.351" width="297.297" height="297.297" rx="40" ry="40" fill="#ffffff"/>
<g transform="translate(384.05,384.05) scale(1.1595)" fill="#F0B90B"><rect x="83.00" y="13.00" width="34.00" height="34.00" transform="rotate(45 100 30)"/><rect x="13.00" y="83.00" width="34.00" height="34.00" transform="rotate(45 30 100)"/><rect x="153.00" y="83.00" width="34.00" height="34.00" transform="rotate(45 170 100)"/><rect x="83.00" y="153.00" width="34.00" height="34.00" transform="rotate(45 100 170)"/><rect x="83.00" y="83.00" width="34.00" height="34.00" transform="rotate(45 100 100)"/></g>
</svg>